<mxfile host="app.diagrams.net" agent="Mozilla/5.0 (Windows NT 10.0; Win64; x64) AppleWebKit/537.36 (KHTML, like Gecko) Chrome/133.0.0.0 Safari/537.36" version="26.0.16">
  <diagram id="i2U2fAWp4BPeJd0J6tEC" name="Страница 1">
    <mxGraphModel dx="677" dy="1126" grid="1" gridSize="10" guides="1" tooltips="1" connect="1" arrows="1" fold="1" page="1" pageScale="1" pageWidth="1169" pageHeight="1654" math="0" shadow="0">
      <root>
        <mxCell id="0" />
        <mxCell id="1" parent="0" />
        <mxCell id="s9wY2HrR1crQIRi6QdSR-31" value="&lt;font style=&quot;font-size: 16px;&quot;&gt;&lt;b&gt;Клиент&lt;/b&gt;&lt;/font&gt;" style="rounded=1;whiteSpace=wrap;html=1;" vertex="1" parent="1">
          <mxGeometry x="280" y="840" width="120" height="60" as="geometry" />
        </mxCell>
        <mxCell id="s9wY2HrR1crQIRi6QdSR-32" value="" style="rounded=0;whiteSpace=wrap;html=1;dashed=1;fillColor=none;" vertex="1" parent="1">
          <mxGeometry x="530" y="700" width="650" height="370" as="geometry" />
        </mxCell>
        <mxCell id="s9wY2HrR1crQIRi6QdSR-33" value="" style="rounded=0;whiteSpace=wrap;html=1;fillColor=none;" vertex="1" parent="1">
          <mxGeometry x="560" y="797" width="130" height="193" as="geometry" />
        </mxCell>
        <mxCell id="s9wY2HrR1crQIRi6QdSR-34" value="Глобальные настройки" style="text;html=1;align=center;verticalAlign=middle;whiteSpace=wrap;rounded=0;fontSize=16;fontStyle=1" vertex="1" parent="1">
          <mxGeometry x="575" y="1010" width="100" height="30" as="geometry" />
        </mxCell>
        <mxCell id="s9wY2HrR1crQIRi6QdSR-35" value="" style="shape=flexArrow;endArrow=classic;html=1;rounded=0;" edge="1" parent="1">
          <mxGeometry width="50" height="50" relative="1" as="geometry">
            <mxPoint x="430" y="869.6" as="sourcePoint" />
            <mxPoint x="500" y="869.6" as="targetPoint" />
          </mxGeometry>
        </mxCell>
        <mxCell id="s9wY2HrR1crQIRi6QdSR-36" value="запрос" style="text;html=1;align=center;verticalAlign=middle;whiteSpace=wrap;rounded=0;fontSize=16;fontStyle=1" vertex="1" parent="1">
          <mxGeometry x="410" y="827" width="100" height="30" as="geometry" />
        </mxCell>
        <mxCell id="s9wY2HrR1crQIRi6QdSR-37" value="Guard" style="rounded=0;whiteSpace=wrap;html=1;fontSize=16;fontStyle=1" vertex="1" parent="1">
          <mxGeometry x="577.5" y="811" width="95" height="33" as="geometry" />
        </mxCell>
        <mxCell id="s9wY2HrR1crQIRi6QdSR-38" value="Pipe" style="rounded=0;whiteSpace=wrap;html=1;fontSize=16;fontStyle=1" vertex="1" parent="1">
          <mxGeometry x="577.5" y="857" width="95" height="33" as="geometry" />
        </mxCell>
        <mxCell id="s9wY2HrR1crQIRi6QdSR-39" value="Middleware" style="rounded=0;whiteSpace=wrap;html=1;fontSize=16;fontStyle=1" vertex="1" parent="1">
          <mxGeometry x="577.5" y="900" width="95" height="33" as="geometry" />
        </mxCell>
        <mxCell id="s9wY2HrR1crQIRi6QdSR-40" value="..." style="rounded=0;whiteSpace=wrap;html=1;fontSize=16;fontStyle=1" vertex="1" parent="1">
          <mxGeometry x="577.5" y="944" width="95" height="33" as="geometry" />
        </mxCell>
        <mxCell id="s9wY2HrR1crQIRi6QdSR-41" value="" style="rounded=0;whiteSpace=wrap;html=1;fillColor=none;dashed=1;" vertex="1" parent="1">
          <mxGeometry x="720" y="745" width="440" height="265" as="geometry" />
        </mxCell>
        <mxCell id="s9wY2HrR1crQIRi6QdSR-42" value="Модуль" style="text;html=1;align=center;verticalAlign=middle;whiteSpace=wrap;rounded=0;fontSize=16;fontStyle=1" vertex="1" parent="1">
          <mxGeometry x="940" y="1020" width="100" height="30" as="geometry" />
        </mxCell>
        <mxCell id="s9wY2HrR1crQIRi6QdSR-43" value="Контроллер" style="rounded=0;whiteSpace=wrap;html=1;fontSize=16;fontStyle=1" vertex="1" parent="1">
          <mxGeometry x="740" y="840" width="120" height="40" as="geometry" />
        </mxCell>
        <mxCell id="s9wY2HrR1crQIRi6QdSR-44" value="Обработчик запроса" style="rounded=0;whiteSpace=wrap;html=1;fontSize=16;fontStyle=1" vertex="1" parent="1">
          <mxGeometry x="890" y="780" width="110" height="50" as="geometry" />
        </mxCell>
        <mxCell id="s9wY2HrR1crQIRi6QdSR-45" value="Обработчик запроса" style="rounded=0;whiteSpace=wrap;html=1;fontSize=16;fontStyle=1" vertex="1" parent="1">
          <mxGeometry x="890" y="852.5" width="110" height="50" as="geometry" />
        </mxCell>
        <mxCell id="s9wY2HrR1crQIRi6QdSR-46" value="Обработчик запроса" style="rounded=0;whiteSpace=wrap;html=1;fontSize=16;fontStyle=1" vertex="1" parent="1">
          <mxGeometry x="890" y="927" width="110" height="50" as="geometry" />
        </mxCell>
        <mxCell id="s9wY2HrR1crQIRi6QdSR-47" value="&lt;span style=&quot;font-size:14.0pt;mso-bidi-font-size:&lt;br/&gt;11.0pt;line-height:107%;font-family:&amp;quot;Times New Roman&amp;quot;,serif;mso-fareast-font-family:&lt;br/&gt;Calibri;mso-fareast-theme-font:minor-latin;mso-ansi-language:RU;mso-fareast-language:&lt;br/&gt;EN-US;mso-bidi-language:AR-SA&quot; lang=&quot;RU&quot;&gt;Провайдер&lt;/span&gt;" style="rounded=0;whiteSpace=wrap;html=1;fontSize=16;fontStyle=1" vertex="1" parent="1">
          <mxGeometry x="1020" y="840" width="120" height="40" as="geometry" />
        </mxCell>
        <mxCell id="s9wY2HrR1crQIRi6QdSR-48" value="" style="endArrow=none;html=1;rounded=0;exitX=1;exitY=0.5;exitDx=0;exitDy=0;entryX=0;entryY=0.5;entryDx=0;entryDy=0;" edge="1" parent="1" source="s9wY2HrR1crQIRi6QdSR-43" target="s9wY2HrR1crQIRi6QdSR-44">
          <mxGeometry width="50" height="50" relative="1" as="geometry">
            <mxPoint x="800" y="820" as="sourcePoint" />
            <mxPoint x="850" y="770" as="targetPoint" />
          </mxGeometry>
        </mxCell>
        <mxCell id="s9wY2HrR1crQIRi6QdSR-49" value="" style="endArrow=none;html=1;rounded=0;exitX=1;exitY=0.5;exitDx=0;exitDy=0;entryX=0;entryY=0.5;entryDx=0;entryDy=0;" edge="1" parent="1" source="s9wY2HrR1crQIRi6QdSR-43" target="s9wY2HrR1crQIRi6QdSR-45">
          <mxGeometry width="50" height="50" relative="1" as="geometry">
            <mxPoint x="790" y="970" as="sourcePoint" />
            <mxPoint x="840" y="920" as="targetPoint" />
          </mxGeometry>
        </mxCell>
        <mxCell id="s9wY2HrR1crQIRi6QdSR-50" value="" style="endArrow=none;html=1;rounded=0;exitX=1;exitY=0.5;exitDx=0;exitDy=0;entryX=0;entryY=0.5;entryDx=0;entryDy=0;" edge="1" parent="1" source="s9wY2HrR1crQIRi6QdSR-43" target="s9wY2HrR1crQIRi6QdSR-46">
          <mxGeometry width="50" height="50" relative="1" as="geometry">
            <mxPoint x="800" y="970" as="sourcePoint" />
            <mxPoint x="850" y="920" as="targetPoint" />
          </mxGeometry>
        </mxCell>
        <mxCell id="s9wY2HrR1crQIRi6QdSR-51" value="Приложение" style="text;html=1;align=center;verticalAlign=middle;whiteSpace=wrap;rounded=0;fontSize=16;fontStyle=1" vertex="1" parent="1">
          <mxGeometry x="1060" y="1080" width="100" height="30" as="geometry" />
        </mxCell>
      </root>
    </mxGraphModel>
  </diagram>
</mxfile>
